<?xml version="1.0" encoding="utf-8"?>
<!-- Generator: Adobe Illustrator 22.1.0, SVG Export Plug-In . SVG Version: 6.00 Build 0)  -->
<svg version="1.1" id="Livello_1" xmlns="http://www.w3.org/2000/svg" xmlns:xlink="http://www.w3.org/1999/xlink" x="0px" y="0px"
	 viewBox="0 0 450 300" style="enable-background:new 0 0 450 300;" xml:space="preserve">
<style type="text/css">
	.st0{fill:#28344A;}
	.st1{fill:#002A60;}
	.st2{fill:url(#SVGID_1_);}
	.st3{fill:url(#SVGID_2_);}
	.st4{fill:#0A0A14;}
	.st5{fill:#0A1624;}
	.st6{fill:url(#SVGID_3_);}
	.st7{fill:url(#SVGID_4_);}
	.st8{fill:url(#SVGID_5_);}
	.st9{fill:url(#SVGID_6_);}
	.st10{fill:url(#SVGID_7_);}
	.st11{fill:#15233B;}
	.st12{fill:url(#SVGID_8_);}
	.st13{fill:url(#SVGID_9_);}
	.st14{fill:url(#SVGID_10_);}
	.st15{fill:#0F2A48;}
	.st16{fill:url(#SVGID_11_);}
	.st17{fill:url(#SVGID_12_);}
	.st18{fill:url(#SVGID_13_);}
	.st19{fill:url(#SVGID_14_);}
	.st20{fill:url(#SVGID_15_);}
	.st21{fill:url(#SVGID_16_);}
	.st22{fill:url(#SVGID_17_);}
	.st23{fill:url(#SVGID_18_);}
	.st24{fill:url(#SVGID_19_);}
	.st25{fill:url(#SVGID_20_);}
	.st26{font-family:'Lato-Regular';}
	.st27{font-size:65.7523px;}
</style>
<g>
	<g>
		<g>
			<path class="st0" d="M24.5,131.1c0,0,14.2-36,44.2-48.2S67.9,120,67.9,120L24.5,131.1z"/>
			<g>
				<g>
					<rect x="65.9" y="76.4" class="st1" width="21.1" height="45"/>
					<rect x="79.4" y="61.2" class="st1" width="7.6" height="15.3"/>
					<linearGradient id="SVGID_1_" gradientUnits="userSpaceOnUse" x1="67.6152" y1="71.6116" x2="79.3804" y2="71.6116">
						<stop  offset="0" style="stop-color:#071524"/>
						<stop  offset="1" style="stop-color:#002A60"/>
					</linearGradient>
					<rect x="67.6" y="70.7" class="st2" width="11.8" height="1.8"/>
					
						<linearGradient id="SVGID_2_" gradientUnits="userSpaceOnUse" x1="115.5582" y1="273.9435" x2="127.3233" y2="273.9435" gradientTransform="matrix(-6.123234e-17 1 -1 -6.123234e-17 360.062 -66.16)">
						<stop  offset="0" style="stop-color:#071524"/>
						<stop  offset="1" style="stop-color:#002A60"/>
					</linearGradient>
					<polygon class="st3" points="87,49.4 87,61.2 85.2,61.2 85.2,49.4 					"/>
				</g>
				<path class="st4" d="M56.5,77.7c-4.3,0-7.8,2.6-7.8,5.8V130h15.7V83.5C64.3,80.3,60.8,77.7,56.5,77.7z"/>
				<path class="st4" d="M46.7,86.4c-4.3,0-7.8,2.6-7.8,5.8v46.5h15.7V92.3C54.6,89,51,86.4,46.7,86.4z"/>
			</g>
		</g>
		<g>
			<polygon class="st5" points="87.1,128.8 87,102.2 21,129 21,147.5 50.3,142.3 			"/>
			<g>
				<linearGradient id="SVGID_3_" gradientUnits="userSpaceOnUse" x1="59.5753" y1="140.9268" x2="59.5753" y2="114.7822">
					<stop  offset="0" style="stop-color:#06121F"/>
					<stop  offset="1" style="stop-color:#0F2A48"/>
				</linearGradient>
				<polygon class="st6" points="54,140.9 65.1,136.8 65.1,114.8 54,119.2 				"/>
				<linearGradient id="SVGID_4_" gradientUnits="userSpaceOnUse" x1="34.2184" y1="145.8389" x2="34.2184" y2="125.4899">
					<stop  offset="0" style="stop-color:#06121F"/>
					<stop  offset="1" style="stop-color:#0F2A48"/>
				</linearGradient>
				<polygon class="st7" points="30.3,145.8 38.1,144.5 38.1,125.5 30.3,128.6 				"/>
				<linearGradient id="SVGID_5_" gradientUnits="userSpaceOnUse" x1="75.2451" y1="135.4064" x2="75.2451" y2="108.3148">
					<stop  offset="0" style="stop-color:#06121F"/>
					<stop  offset="1" style="stop-color:#0F2A48"/>
				</linearGradient>
				<polygon class="st8" points="69,113.3 69,135.4 81.5,130.8 81.5,108.3 				"/>
				<linearGradient id="SVGID_6_" gradientUnits="userSpaceOnUse" x1="45.7591" y1="143.9474" x2="45.7591" y2="120.5727">
					<stop  offset="0" style="stop-color:#06121F"/>
					<stop  offset="1" style="stop-color:#0F2A48"/>
				</linearGradient>
				<polygon class="st9" points="41,143.9 50.3,142.3 50.5,142.2 50.5,120.6 41,124.3 				"/>
				<linearGradient id="SVGID_7_" gradientUnits="userSpaceOnUse" x1="26.4486" y1="146.9657" x2="26.4486" y2="129.1275">
					<stop  offset="0" style="stop-color:#06121F"/>
					<stop  offset="1" style="stop-color:#0F2A48"/>
				</linearGradient>
				<polygon class="st10" points="28.9,146.1 28.9,129.1 24,131.1 24,147 				"/>
			</g>
			<polygon class="st11" points="21,130 21,127.9 87,101.2 87,103.2 			"/>
		</g>
		<linearGradient id="SVGID_8_" gradientUnits="userSpaceOnUse" x1="81.9189" y1="96.126" x2="87.0102" y2="96.126">
			<stop  offset="0" style="stop-color:#7C8C9E"/>
			<stop  offset="1" style="stop-color:#556E8C"/>
		</linearGradient>
		<rect x="81.9" y="61.2" class="st12" width="5.1" height="69.9"/>
		<g>
			<linearGradient id="SVGID_9_" gradientUnits="userSpaceOnUse" x1="17.3901" y1="188.7173" x2="87.0102" y2="188.7173">
				<stop  offset="0" style="stop-color:#0F2A48"/>
				<stop  offset="1" style="stop-color:#15477C"/>
			</linearGradient>
			<path class="st13" d="M87,250.6c-13.5,0-36.7-15.5-50.3-32.9c-4.2-5.4-14.7-50-19.3-71.6c11-1.9,15.5-1.9,32.9-5.8
				c17.4-5.8,25.1-9,36.7-13.5V250.6z"/>
			<linearGradient id="SVGID_10_" gradientUnits="userSpaceOnUse" x1="58.3331" y1="250.6018" x2="58.3331" y2="197.2041">
				<stop  offset="0" style="stop-color:#06121F"/>
				<stop  offset="1" style="stop-color:#0F2A48"/>
			</linearGradient>
			<path class="st14" d="M87,212.9c0,0-40.6-5.3-57.4-15.7c3,11.2,5.3,18.3,7.1,20.5c13.5,17.4,36.7,32.9,50.3,32.9V212.9z"/>
			<path class="st15" d="M19.9,157.4l-0.4-1.9c49.8-3.3,67.4-11.2,67.6-11.3v1.8C86.3,146.2,70.1,154.1,19.9,157.4z"/>
			<path class="st15" d="M74.1,203.5c-35,0-44.2-6.7-44.6-7.1l-0.5-1.9c0.1,0.1,13.4,8.7,58.1,6.7v1.9
				C82.3,203.4,78.1,203.5,74.1,203.5z"/>
		</g>
	</g>
	<g>
		<g>
			<path class="st0" d="M149.5,131.1c0,0-14.2-36-44.2-48.2s0.8,37.1,0.8,37.1L149.5,131.1z"/>
			<g>
				<g>
					
						<rect x="87.1" y="76.4" transform="matrix(-1 -1.224647e-16 1.224647e-16 -1 195.1669 197.9033)" class="st1" width="21.1" height="45"/>
					
						<rect x="87.1" y="61.2" transform="matrix(-1 -1.224647e-16 1.224647e-16 -1 181.7354 137.5967)" class="st1" width="7.6" height="15.3"/>
					
						<linearGradient id="SVGID_11_" gradientUnits="userSpaceOnUse" x1="276.9252" y1="71.6116" x2="288.6903" y2="71.6116" gradientTransform="matrix(-1 0 0 1 383.373 0)">
						<stop  offset="0" style="stop-color:#071524"/>
						<stop  offset="1" style="stop-color:#002A60"/>
					</linearGradient>
					<polygon class="st16" points="106.4,70.7 94.7,70.7 94.7,72.5 106.4,72.5 					"/>
					
						<linearGradient id="SVGID_12_" gradientUnits="userSpaceOnUse" x1="115.5582" y1="64.6335" x2="127.3233" y2="64.6335" gradientTransform="matrix(6.123234e-17 1 1 -6.123234e-17 23.3109 -66.16)">
						<stop  offset="0" style="stop-color:#071524"/>
						<stop  offset="1" style="stop-color:#002A60"/>
					</linearGradient>
					<polygon class="st17" points="87.1,49.4 87.1,61.2 88.8,61.2 88.8,49.4 					"/>
				</g>
				<path class="st4" d="M117.6,77.7c4.3,0,7.8,2.6,7.8,5.8V130h-15.7V83.5C109.7,80.3,113.2,77.7,117.6,77.7z"/>
				<path class="st4" d="M127.4,86.4c4.3,0,7.8,2.6,7.8,5.8v46.5h-15.7V92.3C119.5,89,123,86.4,127.4,86.4z"/>
			</g>
		</g>
		<g>
			<polygon class="st5" points="87,128.8 87.1,102.2 153.1,129 153.1,147.5 123.8,142.3 			"/>
			<g>
				
					<linearGradient id="SVGID_13_" gradientUnits="userSpaceOnUse" x1="279.2086" y1="140.9268" x2="279.2086" y2="114.7822" gradientTransform="matrix(-1 0 0 1 393.6963 0)">
					<stop  offset="0" style="stop-color:#06121F"/>
					<stop  offset="1" style="stop-color:#0F2A48"/>
				</linearGradient>
				<polygon class="st18" points="120.1,140.9 108.9,136.8 108.9,114.8 120.1,119.2 				"/>
				
					<linearGradient id="SVGID_14_" gradientUnits="userSpaceOnUse" x1="253.8517" y1="145.8389" x2="253.8517" y2="125.4899" gradientTransform="matrix(-1 0 0 1 393.6963 0)">
					<stop  offset="0" style="stop-color:#06121F"/>
					<stop  offset="1" style="stop-color:#0F2A48"/>
				</linearGradient>
				<polygon class="st19" points="143.7,145.8 136,144.5 136,125.5 143.7,128.6 				"/>
				
					<linearGradient id="SVGID_15_" gradientUnits="userSpaceOnUse" x1="294.8784" y1="135.4064" x2="294.8784" y2="108.3148" gradientTransform="matrix(-1 0 0 1 393.6963 0)">
					<stop  offset="0" style="stop-color:#06121F"/>
					<stop  offset="1" style="stop-color:#0F2A48"/>
				</linearGradient>
				<polygon class="st20" points="105.1,113.3 105.1,135.4 92.6,130.8 92.6,108.3 				"/>
				
					<linearGradient id="SVGID_16_" gradientUnits="userSpaceOnUse" x1="265.3924" y1="143.9474" x2="265.3924" y2="120.5727" gradientTransform="matrix(-1 0 0 1 393.6963 0)">
					<stop  offset="0" style="stop-color:#06121F"/>
					<stop  offset="1" style="stop-color:#0F2A48"/>
				</linearGradient>
				<polygon class="st21" points="133.1,143.9 123.8,142.3 123.5,142.2 123.5,120.6 133.1,124.3 				"/>
				
					<linearGradient id="SVGID_17_" gradientUnits="userSpaceOnUse" x1="246.0819" y1="146.9657" x2="246.0819" y2="129.1275" gradientTransform="matrix(-1 0 0 1 393.6963 0)">
					<stop  offset="0" style="stop-color:#06121F"/>
					<stop  offset="1" style="stop-color:#0F2A48"/>
				</linearGradient>
				<polygon class="st22" points="145.2,146.1 145.2,129.1 150.1,131.1 150.1,147 				"/>
			</g>
			<polygon class="st11" points="153.1,130 153.1,127.9 87.1,101.2 87.1,103.2 			"/>
		</g>
		
			<linearGradient id="SVGID_18_" gradientUnits="userSpaceOnUse" x1="326.2658" y1="96.126" x2="331.3571" y2="96.126" gradientTransform="matrix(-1 0 0 1 418.3673 0)">
			<stop  offset="0" style="stop-color:#7C8C9E"/>
			<stop  offset="1" style="stop-color:#556E8C"/>
		</linearGradient>
		<polygon class="st23" points="87,131.1 92.1,131.1 92.1,61.2 87,61.2 		"/>
		<g>
			
				<linearGradient id="SVGID_19_" gradientUnits="userSpaceOnUse" x1="271.3696" y1="188.7173" x2="340.9897" y2="188.7173" gradientTransform="matrix(-1 0 0 1 428 0)">
				<stop  offset="0" style="stop-color:#0F2A48"/>
				<stop  offset="1" style="stop-color:#15477C"/>
			</linearGradient>
			<path class="st24" d="M87,250.6c13.5,0,36.7-15.5,50.3-32.9c4.2-5.4,14.7-50,19.3-71.6c-11-1.9-15.5-1.9-32.9-5.8
				c-17.4-5.8-25.1-9-36.7-13.5V250.6z"/>
			
				<linearGradient id="SVGID_20_" gradientUnits="userSpaceOnUse" x1="312.3127" y1="250.6018" x2="312.3127" y2="197.2041" gradientTransform="matrix(-1 0 0 1 428 0)">
				<stop  offset="0" style="stop-color:#06121F"/>
				<stop  offset="1" style="stop-color:#0F2A48"/>
			</linearGradient>
			<path class="st25" d="M87,212.9c0,0,40.6-5.3,57.4-15.7c-3,11.2-5.3,18.3-7.1,20.5c-13.5,17.4-36.7,32.9-50.3,32.9V212.9z"/>
			<path class="st15" d="M154.2,157.4l0.4-1.9c-49.8-3.3-67.4-11.2-67.6-11.3v1.8C87.7,146.2,104,154.1,154.2,157.4z"/>
			<path class="st15" d="M100,203.5c35,0,44.2-6.7,44.6-7.1l0.5-1.9c-0.1,0.1-13.4,8.7-58.1,6.7v1.9C91.7,203.4,96,203.5,100,203.5z
				"/>
		</g>
	</g>
	<text transform="matrix(1 0 0 1 192.6177 180.8156)" class="st1 st26 st27">SeaDuel</text>
</g>
</svg>
