<?xml version="1.0" encoding="utf-8"?>
<!-- Generator: Adobe Illustrator 22.1.0, SVG Export Plug-In . SVG Version: 6.00 Build 0)  -->
<svg version="1.1" id="Livello_1" xmlns="http://www.w3.org/2000/svg" xmlns:xlink="http://www.w3.org/1999/xlink" x="0px" y="0px"
	 viewBox="0 0 450 300" style="enable-background:new 0 0 450 300;" xml:space="preserve">
<style type="text/css">
	.st0{fill:#28344A;}
	.st1{fill:#002A60;}
	.st2{fill:url(#SVGID_1_);}
	.st3{fill:url(#SVGID_2_);}
	.st4{fill:#0A0A14;}
	.st5{fill:#0A1624;}
	.st6{fill:url(#SVGID_3_);}
	.st7{fill:url(#SVGID_4_);}
	.st8{fill:url(#SVGID_5_);}
	.st9{fill:url(#SVGID_6_);}
	.st10{fill:url(#SVGID_7_);}
	.st11{fill:#15233B;}
	.st12{fill:url(#SVGID_8_);}
	.st13{fill:url(#SVGID_9_);}
	.st14{fill:url(#SVGID_10_);}
	.st15{fill:#0F2A48;}
	.st16{fill:url(#SVGID_11_);}
	.st17{fill:url(#SVGID_12_);}
	.st18{fill:url(#SVGID_13_);}
	.st19{fill:url(#SVGID_14_);}
	.st20{fill:url(#SVGID_15_);}
	.st21{fill:url(#SVGID_16_);}
	.st22{fill:url(#SVGID_17_);}
	.st23{fill:url(#SVGID_18_);}
	.st24{fill:url(#SVGID_19_);}
	.st25{fill:url(#SVGID_20_);}
</style>
<g>
	<g>
		<g>
			<path class="st0" d="M132.6,119.7c0,0,20.3-51.6,63.5-69.1s-1.2,53.2-1.2,53.2L132.6,119.7z"/>
			<g>
				<g>
					<rect x="192.1" y="41.4" class="st1" width="30.2" height="64.6"/>
					<rect x="211.3" y="19.5" class="st1" width="10.9" height="21.9"/>
					<linearGradient id="SVGID_1_" gradientUnits="userSpaceOnUse" x1="194.4416" y1="34.4481" x2="211.3128" y2="34.4481">
						<stop  offset="0" style="stop-color:#071524"/>
						<stop  offset="1" style="stop-color:#002A60"/>
					</linearGradient>
					<rect x="194.4" y="33.2" class="st2" width="16.9" height="2.6"/>
					
						<linearGradient id="SVGID_2_" gradientUnits="userSpaceOnUse" x1="68.7542" y1="139.0867" x2="85.6253" y2="139.0867" gradientTransform="matrix(-6.123234e-17 1 -1 -6.123234e-17 360.062 -66.16)">
						<stop  offset="0" style="stop-color:#071524"/>
						<stop  offset="1" style="stop-color:#002A60"/>
					</linearGradient>
					<polygon class="st3" points="222.3,2.6 222.3,19.5 219.7,19.5 219.7,2.6 					"/>
				</g>
				<path class="st4" d="M178.5,43.2c-6.2,0-11.3,3.8-11.3,8.4v66.7h22.5V51.5C189.7,46.9,184.7,43.2,178.5,43.2z"/>
				<path class="st4" d="M164.5,55.7c-6.2,0-11.3,3.8-11.3,8.4v66.7h22.5V64.1C175.7,59.4,170.7,55.7,164.5,55.7z"/>
			</g>
		</g>
		<g>
			<polygon class="st5" points="222.3,116.4 222.3,78.3 127.5,116.7 127.5,143.3 169.6,135.8 			"/>
			<g>
				<linearGradient id="SVGID_3_" gradientUnits="userSpaceOnUse" x1="182.9124" y1="133.8458" x2="182.9124" y2="96.3545">
					<stop  offset="0" style="stop-color:#06121F"/>
					<stop  offset="1" style="stop-color:#0F2A48"/>
				</linearGradient>
				<polygon class="st6" points="174.9,133.8 190.9,128 190.9,96.4 174.9,102.7 				"/>
				<linearGradient id="SVGID_4_" gradientUnits="userSpaceOnUse" x1="146.5507" y1="140.8898" x2="146.5507" y2="111.7093">
					<stop  offset="0" style="stop-color:#06121F"/>
					<stop  offset="1" style="stop-color:#0F2A48"/>
				</linearGradient>
				<polygon class="st7" points="141,140.9 152.1,138.9 152.1,111.7 141,116.1 				"/>
				<linearGradient id="SVGID_5_" gradientUnits="userSpaceOnUse" x1="205.3829" y1="125.9295" x2="205.3829" y2="87.0803">
					<stop  offset="0" style="stop-color:#06121F"/>
					<stop  offset="1" style="stop-color:#0F2A48"/>
				</linearGradient>
				<polygon class="st8" points="196.4,94.2 196.4,125.9 214.3,119.3 214.3,87.1 				"/>
				<linearGradient id="SVGID_6_" gradientUnits="userSpaceOnUse" x1="163.0999" y1="138.1774" x2="163.0999" y2="104.6582">
					<stop  offset="0" style="stop-color:#06121F"/>
					<stop  offset="1" style="stop-color:#0F2A48"/>
				</linearGradient>
				<polygon class="st9" points="156.3,138.2 169.6,135.8 169.9,135.7 169.9,104.7 156.3,110.1 				"/>
				<linearGradient id="SVGID_7_" gradientUnits="userSpaceOnUse" x1="135.4088" y1="142.5056" x2="135.4088" y2="116.9256">
					<stop  offset="0" style="stop-color:#06121F"/>
					<stop  offset="1" style="stop-color:#0F2A48"/>
				</linearGradient>
				<polygon class="st10" points="138.9,141.3 138.9,116.9 131.9,119.7 131.9,142.5 				"/>
			</g>
			<polygon class="st11" points="127.5,118.2 127.5,115.2 222.3,76.8 222.3,79.8 			"/>
		</g>
		<linearGradient id="SVGID_8_" gradientUnits="userSpaceOnUse" x1="214.9531" y1="69.6016" x2="222.254" y2="69.6016">
			<stop  offset="0" style="stop-color:#7C8C9E"/>
			<stop  offset="1" style="stop-color:#556E8C"/>
		</linearGradient>
		<rect x="215" y="19.5" class="st12" width="7.3" height="100.3"/>
		<g>
			<linearGradient id="SVGID_9_" gradientUnits="userSpaceOnUse" x1="122.419" y1="202.3772" x2="222.254" y2="202.3772">
				<stop  offset="0" style="stop-color:#0F2A48"/>
				<stop  offset="1" style="stop-color:#15477C"/>
			</linearGradient>
			<path class="st13" d="M222.3,291.1c-19.4,0-52.7-22.2-72.1-47.1c-6-7.7-21.1-71.7-27.7-102.6c15.7-2.8,22.2-2.8,47.1-8.3
				c25-8.3,36.1-12.9,52.7-19.4V291.1z"/>
			<linearGradient id="SVGID_10_" gradientUnits="userSpaceOnUse" x1="181.1311" y1="291.1194" x2="181.1311" y2="214.5473">
				<stop  offset="0" style="stop-color:#06121F"/>
				<stop  offset="1" style="stop-color:#0F2A48"/>
			</linearGradient>
			<path class="st14" d="M222.3,237c0,0-58.2-7.6-82.2-22.5c4.3,16.1,7.7,26.2,10.1,29.4c19.4,25,52.7,47.1,72.1,47.1V237z"/>
			<path class="st15" d="M126,157.4l-0.6-2.7c71.5-4.7,96.7-16.1,96.9-16.2v2.5C221.3,141.5,198,152.7,126,157.4z"/>
			<path class="st15" d="M203.7,223.6c-50.2,0-63.3-9.6-64-10.1l-0.7-2.7c0.2,0.1,19.2,12.5,83.3,9.7v2.8
				C215.6,223.5,209.4,223.6,203.7,223.6z"/>
		</g>
	</g>
	<g>
		<g>
			<path class="st0" d="M311.9,119.7c0,0-20.3-51.6-63.5-69.1s1.2,53.2,1.2,53.2L311.9,119.7z"/>
			<g>
				<g>
					
						<rect x="222.3" y="41.4" transform="matrix(-1 -1.224647e-16 1.224647e-16 -1 474.8319 147.3072)" class="st1" width="30.2" height="64.6"/>
					
						<rect x="222.3" y="19.5" transform="matrix(-1 -1.224647e-16 1.224647e-16 -1 455.5711 60.8277)" class="st1" width="10.9" height="21.9"/>
					
						<linearGradient id="SVGID_11_" gradientUnits="userSpaceOnUse" x1="133.2456" y1="34.4481" x2="150.1168" y2="34.4481" gradientTransform="matrix(-1 0 0 1 383.373 0)">
						<stop  offset="0" style="stop-color:#071524"/>
						<stop  offset="1" style="stop-color:#002A60"/>
					</linearGradient>
					<polygon class="st16" points="250.1,33.2 233.3,33.2 233.3,35.7 250.1,35.7 					"/>
					
						<linearGradient id="SVGID_12_" gradientUnits="userSpaceOnUse" x1="68.7542" y1="200.2827" x2="85.6253" y2="200.2827" gradientTransform="matrix(6.123234e-17 1 1 -6.123234e-17 23.3109 -66.16)">
						<stop  offset="0" style="stop-color:#071524"/>
						<stop  offset="1" style="stop-color:#002A60"/>
					</linearGradient>
					<polygon class="st17" points="222.3,2.6 222.3,19.5 224.9,19.5 224.9,2.6 					"/>
				</g>
				<path class="st4" d="M266.1,43.2c6.2,0,11.3,3.8,11.3,8.4v66.7h-22.5V51.5C254.8,46.9,259.9,43.2,266.1,43.2z"/>
				<path class="st4" d="M280.1,55.7c6.2,0,11.3,3.8,11.3,8.4v66.7h-22.5V64.1C268.9,59.4,273.9,55.7,280.1,55.7z"/>
			</g>
		</g>
		<g>
			<polygon class="st5" points="222.3,116.4 222.3,78.3 317,116.7 317,143.3 275,135.8 			"/>
			<g>
				
					<linearGradient id="SVGID_13_" gradientUnits="userSpaceOnUse" x1="132.0397" y1="133.8458" x2="132.0397" y2="96.3545" gradientTransform="matrix(-1 0 0 1 393.6963 0)">
					<stop  offset="0" style="stop-color:#06121F"/>
					<stop  offset="1" style="stop-color:#0F2A48"/>
				</linearGradient>
				<polygon class="st18" points="269.6,133.8 253.7,128 253.7,96.4 269.6,102.7 				"/>
				
					<linearGradient id="SVGID_14_" gradientUnits="userSpaceOnUse" x1="95.678" y1="140.8898" x2="95.678" y2="111.7093" gradientTransform="matrix(-1 0 0 1 393.6963 0)">
					<stop  offset="0" style="stop-color:#06121F"/>
					<stop  offset="1" style="stop-color:#0F2A48"/>
				</linearGradient>
				<polygon class="st19" points="303.6,140.9 292.5,138.9 292.5,111.7 303.6,116.1 				"/>
				
					<linearGradient id="SVGID_15_" gradientUnits="userSpaceOnUse" x1="154.5102" y1="125.9295" x2="154.5102" y2="87.0803" gradientTransform="matrix(-1 0 0 1 393.6963 0)">
					<stop  offset="0" style="stop-color:#06121F"/>
					<stop  offset="1" style="stop-color:#0F2A48"/>
				</linearGradient>
				<polygon class="st20" points="248.1,94.2 248.1,125.9 230.2,119.3 230.2,87.1 				"/>
				
					<linearGradient id="SVGID_16_" gradientUnits="userSpaceOnUse" x1="112.2273" y1="138.1774" x2="112.2273" y2="104.6582" gradientTransform="matrix(-1 0 0 1 393.6963 0)">
					<stop  offset="0" style="stop-color:#06121F"/>
					<stop  offset="1" style="stop-color:#0F2A48"/>
				</linearGradient>
				<polygon class="st21" points="288.3,138.2 275,135.8 274.7,135.7 274.7,104.7 288.3,110.1 				"/>
				
					<linearGradient id="SVGID_17_" gradientUnits="userSpaceOnUse" x1="84.5362" y1="142.5056" x2="84.5362" y2="116.9256" gradientTransform="matrix(-1 0 0 1 393.6963 0)">
					<stop  offset="0" style="stop-color:#06121F"/>
					<stop  offset="1" style="stop-color:#0F2A48"/>
				</linearGradient>
				<polygon class="st22" points="305.6,141.3 305.6,116.9 312.7,119.7 312.7,142.5 				"/>
			</g>
			<polygon class="st11" points="317,118.2 317,115.2 222.3,76.8 222.3,79.8 			"/>
		</g>
		
			<linearGradient id="SVGID_18_" gradientUnits="userSpaceOnUse" x1="188.8124" y1="69.6016" x2="196.1133" y2="69.6016" gradientTransform="matrix(-1 0 0 1 418.3673 0)">
			<stop  offset="0" style="stop-color:#7C8C9E"/>
			<stop  offset="1" style="stop-color:#556E8C"/>
		</linearGradient>
		<polygon class="st23" points="222.3,119.7 229.6,119.7 229.6,19.5 222.3,19.5 		"/>
		<g>
			
				<linearGradient id="SVGID_19_" gradientUnits="userSpaceOnUse" x1="105.911" y1="202.3772" x2="205.746" y2="202.3772" gradientTransform="matrix(-1 0 0 1 428 0)">
				<stop  offset="0" style="stop-color:#0F2A48"/>
				<stop  offset="1" style="stop-color:#15477C"/>
			</linearGradient>
			<path class="st24" d="M222.3,291.1c19.4,0,52.7-22.2,72.1-47.1c6-7.7,21.1-71.7,27.7-102.6c-15.7-2.8-22.2-2.8-47.1-8.3
				c-25-8.3-36.1-12.9-52.7-19.4V291.1z"/>
			
				<linearGradient id="SVGID_20_" gradientUnits="userSpaceOnUse" x1="164.6231" y1="291.1194" x2="164.6231" y2="214.5473" gradientTransform="matrix(-1 0 0 1 428 0)">
				<stop  offset="0" style="stop-color:#06121F"/>
				<stop  offset="1" style="stop-color:#0F2A48"/>
			</linearGradient>
			<path class="st25" d="M222.3,237c0,0,58.2-7.6,82.2-22.5c-4.3,16.1-7.7,26.2-10.1,29.4c-19.4,25-52.7,47.1-72.1,47.1V237z"/>
			<path class="st15" d="M318.6,157.4l0.6-2.7c-71.5-4.7-96.7-16.1-96.9-16.2v2.5C223.2,141.5,246.6,152.7,318.6,157.4z"/>
			<path class="st15" d="M240.8,223.6c50.2,0,63.3-9.6,64-10.1l0.7-2.7c-0.2,0.1-19.2,12.5-83.3,9.7v2.8
				C228.9,223.5,235.1,223.6,240.8,223.6z"/>
		</g>
	</g>
</g>
</svg>
